<?xml version="1.0" encoding="iso-8859-1"?>
<!-- Uploaded to: SVG Repo, www.svgrepo.com, Generator: SVG Repo Mixer Tools -->
<svg fill="#000000" height="800px" width="800px" version="1.1" id="Layer_1" xmlns="http://www.w3.org/2000/svg" xmlns:xlink="http://www.w3.org/1999/xlink" 
	 viewBox="0 0 512.035 512.035" xml:space="preserve">
<g transform="translate(1 1)">
	<g>
		<g>
			<path d="M501.569,54.501l-9.387-6.827c-8.533-6.827-20.48-5.12-26.453,3.413l-14.355,18.724l-1.005-0.804
				c-2.56-1.707-4.267-1.707-6.827-1.707c-2.56,0-4.267,1.707-5.973,3.413l-3.179,4.325l-30.954-7.739
				c-2.56-0.853-6.827,0.853-8.533,3.413l-18.773,25.031V84.835c0.086-0.979-0.025-1.936-0.314-2.851
				c-0.328-1.149-0.919-2.131-1.773-3.083c-0.151-0.172-0.308-0.341-0.473-0.506l-76.8-76.8c-0.165-0.165-0.334-0.322-0.506-0.473
				c-0.952-0.854-1.934-1.445-3.083-1.773c-0.915-0.289-1.872-0.401-2.851-0.314H9.196c-5.12,0-8.533,3.413-8.533,8.533v494.933
				c0,5.12,3.413,8.533,8.533,8.533h358.4c5.12,0,8.533-3.413,8.533-8.533V271.658l118.613-156.57
				c2.56-3.413,1.707-9.387-1.707-11.947l-1.998-1.598l14.798-20.588C511.809,72.421,510.102,60.475,501.569,54.501z
				 M404.289,85.221l19.282,4.537l-47.442,64.54v-31.362L404.289,85.221z M314.689,320.741l-26.386-17.875l10.35-14.158
				l25.241,19.87L314.689,320.741z M334.191,294.971l-25.42-20.011l9.843-13.354l26.044,19.533L334.191,294.971z M280.777,318.56
				l21.52,16.14l-29.421,20.174l-3.189-2.392L280.777,318.56z M354.958,267.529l-26.217-19.663l10.189-13.823l26.659,19.439
				L354.958,267.529z M375.888,239.872l-26.834-19.566l10.168-13.796l27.147,19.512L375.888,239.872z M347.116,75.835h-47.787
				V28.048L347.116,75.835z M359.063,493.968H17.729V16.101h264.533v68.267c0,5.12,3.413,8.533,8.533,8.533h68.267v25.6
				l-15.36,20.48c-2.56,3.413-1.707,9.387,1.707,11.947c1.707,0.853,3.413,1.707,5.12,1.707c2.56,0,5.12-0.853,5.973-3.413
				l2.56-3.429v31.589l-90.453,122.027c0,0.853-0.853,1.707-0.853,2.56l-17.067,51.2c-0.825,3.3,0.746,6.599,3.165,9.128
				l-4.872,7.086c-2.56,4.267-1.707,9.387,2.56,11.947c1.707,0.853,3.413,1.707,5.12,1.707c2.56,0,5.12-0.853,6.827-4.267
				l4.161-6.052l0.106,0.079c1.707,0.853,3.413,1.707,5.12,1.707c1.707,0,3.413-0.853,4.267-0.853l44.373-30.72
				c0.23-0.23,0.459-0.478,0.685-0.737l0.169-0.117c0.853,0,0.853-0.853,1.707-1.707l34.987-46.182V493.968z M398.152,213.745
				l-29.08-20.598l77.031-104.512l29.013,23.04L398.152,213.745z M490.476,70.715l-14.11,19.09l-11.867-9.494l14.031-18.983
				c0.853-0.853,1.707-0.853,2.56,0l9.387,6.827C491.329,69.008,491.329,69.861,490.476,70.715z"/>
			<path d="M179.862,161.168h-102.4c-5.12,0-8.533,3.413-8.533,8.533s3.413,8.533,8.533,8.533h102.4c5.12,0,8.533-3.413,8.533-8.533
				S184.982,161.168,179.862,161.168z"/>
			<path d="M179.862,263.568h-102.4c-5.12,0-8.533,3.413-8.533,8.533c0,5.12,3.413,8.533,8.533,8.533h102.4
				c5.12,0,8.533-3.413,8.533-8.533C188.396,266.981,184.982,263.568,179.862,263.568z"/>
			<path d="M179.862,365.968h-102.4c-5.12,0-8.533,3.413-8.533,8.533s3.413,8.533,8.533,8.533h102.4c5.12,0,8.533-3.413,8.533-8.533
				S184.982,365.968,179.862,365.968z"/>
			<path d="M242.156,184.208c1.707,1.707,3.413,2.56,5.973,2.56s5.12-0.853,5.973-3.413l42.667-51.2
				c3.413-3.413,2.56-8.533-0.853-11.947s-8.533-2.56-11.947,0.853l-36.693,44.373l-10.24-10.24c-3.413-3.413-8.533-3.413-11.947,0
				s-3.413,8.533,0,11.947L242.156,184.208z"/>
			<path d="M254.102,285.755l42.667-51.2c3.413-3.413,2.56-8.533-0.853-11.947s-8.533-2.56-11.947,0.853l-36.693,44.373
				l-10.24-10.24c-3.413-3.413-8.533-3.413-11.947,0s-3.413,8.533,0,11.947l17.067,17.067c1.707,1.707,3.413,2.56,5.973,2.56
				S253.249,288.315,254.102,285.755z"/>
		</g>
	</g>
</g>
</svg>